<svg width="40" height="40" viewBox="0 0 1754 318" fill="none" xmlns="http://www.w3.org/2000/svg">
<path d="M22.607 13.0912V128.4C22.607 147.908 26.759 162.769 35.0631 172.983C43.3672 183.196 55.7289 188.317 72.1483 188.344C88.5407 188.182 100.822 182.994 108.991 172.78C117.16 162.567 121.353 148.097 121.568 129.372V13.0912H144.256V132.453C144.256 156.771 137.961 175.685 125.37 189.195C112.779 202.705 95.0384 209.46 72.1483 209.46C49.6357 209.46 32.03 202.705 19.3312 189.195C6.63246 175.685 0.188729 156.69 0 132.209V13.0912H22.607ZM249.284 74.6971C265.097 74.6971 277.108 79.2771 285.196 88.4774C293.67 98.8033 297.997 111.926 297.329 125.279V204.596H276.258V127.589C276.62 119.086 274.253 110.691 269.505 103.636C264.975 97.394 257.615 94.1922 247.343 94.0301C234.361 94.0301 224.614 98.2857 218.022 106.878C211.43 115.471 208.154 127.143 208.154 142.464V204.434H187.125V106.068C187.125 105.176 186.774 95.7999 186.073 77.9396H206.051C206.415 90.585 206.577 97.5156 206.577 98.7721H207.143C210.724 91.3635 216.52 85.2576 223.724 81.3036C231.506 76.8627 240.329 74.5822 249.284 74.6971ZM349.741 13.0912C351.757 13.0731 353.755 13.4621 355.617 14.235C357.48 15.008 359.167 16.1491 360.58 17.5901C362.06 18.9948 363.231 20.6937 364.018 22.5781C364.804 24.4625 365.19 26.4909 365.15 28.5332C365.257 30.625 364.938 32.7166 364.213 34.681C363.488 36.6454 362.372 38.4415 360.932 39.9599C359.493 41.4784 357.76 42.6876 355.84 43.5138C353.92 44.34 351.851 44.7661 349.762 44.7661C347.672 44.7661 345.604 44.34 343.683 43.5138C341.763 42.6876 340.03 41.4784 338.591 39.9599C337.151 38.4415 336.035 36.6454 335.31 34.681C334.585 32.7166 334.266 30.625 334.373 28.5332C334.333 26.4909 334.719 24.4625 335.506 22.5781C336.293 20.6937 337.463 18.9948 338.943 17.5901C340.351 16.154 342.032 15.0158 343.887 14.243C345.742 13.4702 347.733 13.0785 349.741 13.0912ZM360.297 77.9396V204.596H339.065V77.9396H360.297ZM434.063 41.9487V77.9396H471.31V95.8134H434.063V163.458C434.063 173.564 435.68 180.238 438.916 183.48C440.809 185.193 443.028 186.507 445.439 187.342C447.85 188.178 450.404 188.518 452.949 188.344C459.428 188.485 465.838 186.994 471.593 184.007L472.402 203.259C464.594 206.421 456.232 207.978 447.813 207.839C434.871 207.839 425.826 204.637 420.676 198.233C415.527 191.829 412.965 181.319 412.992 166.701V95.8134H385.411V77.9396H412.992V41.9487H434.063ZM554.782 74.6971C573.547 74.6971 588.146 80.6146 598.701 92.4089C609.257 104.203 614.595 120.983 614.878 142.626V147.773H512.641C513.357 158.727 518.08 169.031 525.906 176.712C529.63 180.421 534.047 183.358 538.905 185.354C543.762 187.35 548.965 188.366 554.215 188.344C561.944 188.682 569.637 187.106 576.613 183.755C583.589 180.404 589.634 175.382 594.212 169.133L610.147 181.575C603.937 189.851 595.893 196.567 586.65 201.192C576.516 205.862 565.447 208.137 554.296 207.839C545.661 208.202 537.048 206.713 529.034 203.469C521.02 200.226 513.79 195.304 507.829 189.033C495.947 176.012 489.556 158.887 489.994 141.248C489.699 132.557 491.135 123.895 494.218 115.767C497.301 107.639 501.969 100.208 507.95 93.9085C514.05 87.682 521.352 82.7671 529.411 79.464C537.47 76.1609 546.117 74.5389 554.822 74.6971H554.782ZM592.069 129.899C592.062 120.132 588.228 110.759 581.392 103.798C577.645 100.442 573.27 97.865 568.522 96.2161C563.774 94.5672 558.746 93.8793 553.73 94.1921C543.604 93.6686 533.67 97.0946 526.009 103.752C518.349 110.409 513.558 119.78 512.641 129.899H592.069ZM773.613 0.202663V204.799H752.542V182.345H752.017C747.582 190.573 740.677 197.194 732.281 201.273C723.321 205.815 713.405 208.136 703.365 208.042C694.954 208.22 686.603 206.591 678.874 203.263C671.144 199.935 664.216 194.986 658.555 188.749C646.518 175.89 639.884 158.879 640.033 141.248C639.74 132.466 641.231 123.717 644.415 115.53C647.599 107.344 652.41 99.8911 658.555 93.6247C664.85 87.3845 672.343 82.4896 680.581 79.2362C688.818 75.9828 697.629 74.4386 706.479 74.6971C715.198 74.5731 723.829 76.4605 731.704 80.2134C739.58 83.9663 746.488 89.4841 751.895 96.3402H752.421V0L773.613 0.202663ZM662.842 141.45C662.587 147.646 663.568 153.831 665.728 159.642C667.887 165.453 671.182 170.774 675.42 175.293C679.613 179.614 684.65 183.021 690.217 185.301C695.784 187.581 701.761 188.686 707.773 188.547C713.722 188.768 719.651 187.726 725.171 185.491C730.691 183.256 735.677 179.878 739.803 175.577C748.245 166.245 752.828 154.044 752.623 141.45C753.069 128.957 748.545 116.798 740.046 107.648C735.886 103.283 730.854 99.847 725.28 97.5633C719.705 95.2796 713.712 94.1999 707.692 94.3948C701.782 94.1915 695.897 95.2541 690.43 97.5116C684.962 99.7691 680.038 103.17 675.986 107.486C667.572 116.773 662.977 128.907 663.125 141.45H662.842ZM944.601 13.0912V34.2075H881.39V204.718H858.702V34.0859H795.492V13.0912H944.601ZM988.642 0.121586V95.6512H989.168C993.212 89.1032 999.033 83.8452 1005.95 80.493C1013.39 76.6987 1021.63 74.7526 1029.97 74.8187C1045.83 74.8187 1057.76 79.4122 1065.76 88.599C1074.21 98.9401 1078.53 112.052 1077.9 125.4V204.718H1056.83V127.711C1057.21 119.206 1054.84 110.804 1050.07 103.757C1045.58 97.5156 1038.18 94.3138 1027.95 94.1516C1014.97 94.1516 1005.18 98.4073 998.631 107C992.08 115.592 988.763 127.265 988.763 141.775V204.556H967.693V0L988.642 0.121586ZM1179.89 74.8187C1182.83 74.7663 1185.76 75.2187 1188.55 76.1562L1187.21 97.5562C1183.51 96.5067 1179.69 95.9614 1175.85 95.935C1163.58 95.935 1154.35 99.988 1148.14 108.094C1141.94 116.2 1138.84 127.522 1138.84 142.058V204.84H1117.77V106.068C1117.77 103.555 1117.41 94.1787 1116.68 77.9396H1136.9C1137.23 90.585 1137.43 97.5156 1137.43 98.7721H1137.95C1141.56 91.3684 1147.37 85.266 1154.58 81.3036C1162.34 76.8642 1171.15 74.5835 1180.09 74.6971L1179.89 74.8187ZM1270.4 74.8187C1289.11 74.8187 1303.75 80.7227 1314.32 92.5305C1324.89 104.338 1330.28 121.077 1330.5 142.747V147.895H1228.26C1229 158.835 1233.7 169.129 1241.48 176.833C1249.01 184.31 1259.19 188.492 1269.79 188.465C1277.51 188.777 1285.19 187.175 1292.15 183.803C1299.1 180.431 1305.12 175.392 1309.67 169.133L1325.6 181.575C1319.41 189.869 1311.36 196.588 1302.11 201.192C1291.98 205.875 1280.9 208.15 1269.75 207.839C1261.12 208.202 1252.51 206.713 1244.49 203.469C1236.48 200.226 1229.25 195.304 1223.29 189.033C1211.37 176.032 1204.97 158.893 1205.45 141.248C1205.16 132.557 1206.59 123.895 1209.68 115.767C1212.76 107.639 1217.43 100.208 1223.41 93.9085C1229.51 87.6801 1236.81 82.7639 1244.87 79.4607C1252.93 76.1574 1261.57 74.5365 1270.28 74.6971L1270.4 74.8187ZM1307.69 130.021C1307.68 120.254 1303.85 110.881 1297.01 103.919C1293.26 100.527 1288.87 97.9169 1284.1 96.2401C1279.33 94.5632 1274.27 93.8533 1269.23 94.1516C1259.11 93.6389 1249.18 97.0698 1241.53 103.726C1233.88 110.382 1229.1 119.746 1228.18 129.859L1307.69 130.021ZM1411.7 74.8187C1430.07 74.8187 1443.44 79.1419 1451.82 87.7884C1460.21 96.4348 1464.48 109.526 1464.64 127.062V183.804C1464.77 190.786 1465.4 197.749 1466.54 204.637H1446.32C1445.39 203.016 1444.95 196.531 1444.95 185.709H1444.42C1439.95 192.684 1433.76 198.385 1426.45 202.262C1419.14 206.138 1410.95 208.059 1402.69 207.839C1390.53 208.373 1378.56 204.695 1368.8 197.423C1364.61 194.258 1361.24 190.14 1358.97 185.411C1356.69 180.682 1355.57 175.477 1355.69 170.227C1355.32 163.393 1356.89 156.594 1360.24 150.628C1363.58 144.662 1368.56 139.776 1374.58 136.546C1387.2 129.413 1406.92 125.846 1433.75 125.846H1443.49V122.523C1443.49 104.122 1433.04 94.7461 1412.15 94.3948C1398.31 93.9079 1384.83 98.8521 1374.58 108.175L1361.44 94.1516C1374.98 81.2814 1393.04 74.2774 1411.7 74.6566V74.8187ZM1378.46 168.038C1378.46 182.305 1387.74 189.614 1406.29 189.965C1411.25 190.157 1416.2 189.32 1420.83 187.507C1425.46 185.694 1429.66 182.943 1433.18 179.427C1440.09 172.375 1443.57 162.121 1443.57 148.584V143.72H1420.32C1409.96 143.279 1399.65 145.308 1390.23 149.637C1386.7 151.228 1383.7 153.815 1381.61 157.082C1379.52 160.35 1378.43 164.157 1378.46 168.038ZM1629.4 0V204.596H1608.33V182.143H1607.81C1603.37 190.37 1596.47 196.992 1588.07 201.07C1579.12 205.607 1569.22 207.928 1559.2 207.839C1550.81 208.026 1542.49 206.421 1534.78 203.129C1527.06 199.837 1520.14 194.935 1514.47 188.749C1502.44 175.886 1495.82 158.874 1495.99 141.248C1495.69 132.469 1497.17 123.721 1500.35 115.535C1503.53 107.349 1508.33 99.8945 1514.47 93.6247C1520.77 87.3814 1528.27 82.4849 1536.51 79.2314C1544.76 75.978 1553.57 74.4354 1562.43 74.6971C1571.15 74.5608 1579.78 76.443 1587.65 80.1971C1595.52 83.9511 1602.42 89.4757 1607.81 96.3402H1608.33V0H1629.4ZM1518.67 141.248C1518.41 147.441 1519.39 153.624 1521.54 159.435C1523.69 165.246 1526.98 170.568 1531.21 175.09C1535.41 179.407 1540.44 182.811 1546.01 185.092C1551.58 187.372 1557.55 188.479 1563.56 188.344C1569.51 188.569 1575.43 187.53 1580.95 185.295C1586.46 183.059 1591.44 179.678 1595.55 175.374C1604.03 166.062 1608.61 153.848 1608.37 141.248C1608.6 135.064 1607.61 128.896 1605.46 123.096C1603.31 117.296 1600.04 111.978 1595.84 107.446C1591.65 103.046 1586.58 99.587 1580.96 97.2955C1575.34 95.004 1569.3 93.9325 1563.24 94.1516C1557.32 93.9504 1551.43 95.0137 1545.96 97.2709C1540.49 99.5281 1535.55 102.927 1531.49 107.243C1523.09 116.534 1518.51 128.669 1518.67 141.207V141.248ZM1706.97 74.6971C1727.11 74.8592 1741.43 82.5195 1749.92 97.6777L1732.33 109.31C1729.7 104.559 1725.81 100.629 1721.09 97.9544C1716.38 95.2793 1711.01 93.9633 1705.6 94.1516C1699.35 93.9314 1693.18 95.6282 1687.92 99.0152C1685.73 100.331 1683.92 102.197 1682.66 104.428C1681.41 106.66 1680.75 109.18 1680.76 111.742C1680.76 120.226 1691.29 126.36 1712.35 130.142C1727.47 132.844 1738.19 137.262 1744.5 143.396C1747.7 146.614 1750.19 150.463 1751.82 154.699C1753.44 158.934 1754.18 163.463 1753.96 167.998C1754.2 173.63 1753.07 179.237 1750.67 184.335C1748.27 189.433 1744.67 193.869 1740.17 197.26C1731.01 204.286 1718.77 207.798 1703.45 207.798C1693.38 208.161 1683.35 206.221 1674.13 202.124C1666.09 197.977 1659.25 191.821 1654.27 184.25L1671.02 171.281C1675.21 176.696 1680.45 181.204 1686.43 184.534C1691.73 187.104 1697.56 188.395 1703.45 188.303C1710.49 188.6 1717.45 186.764 1723.43 183.034C1725.87 181.568 1727.87 179.486 1729.25 176.995C1730.63 174.505 1731.33 171.695 1731.28 168.849C1731.38 166.012 1730.68 163.203 1729.25 160.754C1727.81 158.305 1725.71 156.318 1723.19 155.028C1714.5 150.926 1705.26 148.101 1695.77 146.638C1683.15 143.936 1674.01 139.883 1668.35 134.479C1665.44 131.542 1663.18 128.026 1661.72 124.157C1660.26 120.289 1659.62 116.156 1659.86 112.025C1659.8 106.885 1660.96 101.805 1663.24 97.1983C1665.51 92.592 1668.85 88.59 1672.96 85.5187C1682.78 78.1025 1694.84 74.2832 1707.13 74.6971H1706.97Z" fill="black"/>
<path d="M229.872 317.068L213.695 289.021L197.842 317.068H190.522L175.316 262.757H182.515L195.092 308.232L209.975 282.09H217.739L232.541 308.232L245.199 262.757H252.398L237.111 317.068H229.872ZM310.23 317.068V262.757H344.525V269.323H317.065V282.09H341.047V288.899H317.065V310.461H343.837V317.068H310.23ZM439.644 317.068L433.618 301.261H411.416L405.39 317.068H398.07L418.978 262.676H426.056L446.843 317.068H439.644ZM430.949 294.533L422.335 272.485L413.883 294.492L430.949 294.533ZM524.936 288.129L545.723 317.068H537.837L517.009 288.697H509.325V317.068H502.774V262.757H521.579C524.994 262.779 528.263 264.148 530.678 266.568C533.093 268.988 534.459 272.264 534.48 275.687C534.45 278.556 533.48 281.336 531.719 283.599C529.958 285.862 527.503 287.482 524.734 288.21L524.936 288.129ZM509.528 269.242V281.928H521.66C522.534 281.998 523.413 281.886 524.241 281.599C525.069 281.312 525.829 280.856 526.473 280.261C527.117 279.665 527.631 278.942 527.983 278.137C528.334 277.332 528.516 276.464 528.516 275.585C528.516 274.707 528.334 273.838 527.983 273.033C527.631 272.228 527.117 271.506 526.473 270.91C525.829 270.314 525.069 269.858 524.241 269.571C523.413 269.284 522.534 269.172 521.66 269.242H509.528ZM679.383 317.068V269.485H665.067V262.757H700.615V269.485H686.259V317.068H679.383ZM792.621 317.068V288.697H764.756V317.068H757.922V262.757H764.756V282.171H792.621V262.757H799.496V317.068H792.621ZM860.725 317.068V262.757H895.06V269.323H867.6V282.09H891.582V288.899H867.6V310.461H894.372V317.068H860.725ZM1044.98 311.191C1048.33 311.196 1051.64 310.418 1054.65 308.92C1057.65 307.422 1060.27 305.244 1062.29 302.558L1067.63 306.611C1064.99 310.142 1061.58 313.01 1057.64 314.987C1053.71 316.964 1049.38 317.995 1044.98 318C1040.16 318.005 1035.42 316.777 1031.2 314.431C1026.99 312.085 1023.44 308.7 1020.9 304.596C1018.36 300.492 1016.9 295.805 1016.67 290.98C1016.44 286.154 1017.45 281.35 1019.59 277.022C1021.73 272.695 1024.94 268.987 1028.91 266.25C1032.88 263.513 1037.49 261.838 1042.28 261.384C1047.08 260.929 1051.92 261.71 1056.33 263.653C1060.75 265.596 1064.59 268.636 1067.5 272.485L1062.08 276.538C1060.09 273.823 1057.48 271.619 1054.47 270.105C1051.46 268.591 1048.14 267.809 1044.78 267.824C1041.85 267.697 1038.92 268.165 1036.18 269.201C1033.44 270.237 1030.93 271.818 1028.82 273.85C1026.7 275.881 1025.02 278.321 1023.87 281.023C1022.71 283.724 1022.12 286.631 1022.12 289.568C1022.12 292.505 1022.71 295.412 1023.87 298.114C1025.02 300.815 1026.7 303.255 1028.82 305.286C1030.93 307.318 1033.44 308.899 1036.18 309.935C1038.92 310.971 1041.85 311.439 1044.78 311.312L1044.98 311.191ZM1160.04 317.068V288.697H1132.17V317.068H1125.34V262.757H1132.17V282.171H1160.04V262.757H1166.91V317.068H1160.04ZM1264.38 317.068L1258.35 301.261H1236.19L1230.16 317.068H1222.8L1243.71 262.676H1250.83L1271.94 317.068H1264.38ZM1255.68 294.533L1247.47 272.485L1239.02 294.492L1255.68 294.533ZM1365.72 317.068L1336.64 274.065V317.068H1329.89V262.757H1337.37L1366.29 305.76V262.757H1373.16V317.068H1365.72ZM1460.76 282.09H1483.57V306.165C1480.91 309.768 1477.45 312.703 1473.46 314.742C1469.48 316.782 1465.07 317.869 1460.6 317.919C1455.97 317.852 1451.44 316.649 1447.38 314.417C1443.33 312.186 1439.88 308.992 1437.34 305.116C1434.8 301.24 1433.25 296.8 1432.82 292.185C1432.39 287.569 1433.1 282.918 1434.88 278.639C1436.66 274.36 1439.46 270.583 1443.03 267.638C1446.6 264.693 1450.84 262.671 1455.37 261.748C1459.91 260.825 1464.6 261.029 1469.03 262.342C1473.47 263.656 1477.52 266.039 1480.82 269.283L1475.48 273.903C1473.49 271.939 1471.14 270.387 1468.55 269.337C1465.96 268.287 1463.19 267.759 1460.4 267.783C1456.76 267.763 1453.18 268.658 1449.98 270.385C1446.78 272.112 1444.07 274.616 1442.08 277.668C1440.1 280.72 1438.91 284.223 1438.63 287.854C1438.34 291.485 1438.98 295.13 1440.46 298.453C1441.95 301.777 1444.25 304.673 1447.14 306.877C1450.03 309.08 1453.43 310.521 1457.03 311.067C1460.62 311.612 1464.29 311.245 1467.71 310C1471.12 308.754 1474.17 306.669 1476.57 303.936V288.899H1460.64V282.171L1460.76 282.09ZM1544.23 317.068V262.757H1578.57V269.323H1551.11V282.09H1575.05V288.899H1551.11V310.461H1577.88V317.068H1544.23Z" fill="black"/>
</svg>
